<svg width="154" height="39" xmlns="http://www.w3.org/2000/svg"><g fill="none" fill-rule="evenodd"><path d="M50.616 14.478h4.72v2.01h-1.023l-2.862 8.066h-3.196L45.36 16.49h-1.108v-2.011h4.921v2.01h-1.228l2.006 5.271 1.992-5.28h-1.328v-2.001zm7.56 2.01h1.204v6.055h-1.204v2.011h9.14v-3.462h-2.485v1.451h-2.948V20.48h2.28v-2h-2.28v-1.991h2.948v1.258h2.485v-3.27h-9.14v2.012zm19.374 0h.962v4.24l-4.744-6.25h-3.472v2.01h.909v6.055h-.934v2.011h4.335v-2.01h-.94v-4.126l4.772 6.136h2.532V16.49h.916v-2.011H77.55v2.01zm7.201 0h1.204v6.055h-1.204v2.011h9.14v-3.462h-2.467v1.451h-2.951V20.48h2.283v-2h-2.283v-1.991h2.95v1.258h2.469v-3.27h-9.14v2.012zm17.755 0h1.328l-2.003 5.271-2.01-5.28h1.23v-2.001h-4.922v2.01h1.108l2.894 8.066h3.195l2.87-8.065h1.026v-2.011h-4.723l.007 2.01zm14.09-1.261a3.341 3.341 0 0 0-.763-.543 4.347 4.347 0 0 0-1.023-.382 5.064 5.064 0 0 0-1.243-.14 5.805 5.805 0 0 0-1.59.205 3.73 3.73 0 0 0-1.254.609 2.82 2.82 0 0 0-.82.987 2.901 2.901 0 0 0-.295 1.334c-.002.424.064.846.195 1.251.455 1.375 3.938 1.891 3.938 1.891.647.117 1.293.24 1.371.983.036.3-.1.596-.355.77a1.532 1.532 0 0 1-1.04.313 2.459 2.459 0 0 1-.785-.113 1.545 1.545 0 0 1-.554-.32 1.311 1.311 0 0 1-.33-.481 1.188 1.188 0 0 1-.11-.506v-.14h-2.607v2.01h.86c.117.227.266.436.443.623.24.256.518.475.828.646a3.97 3.97 0 0 0 1.044.416c.395.097.802.145 1.21.141a4.665 4.665 0 0 0 1.616-.271 3.736 3.736 0 0 0 1.254-.75c.35-.327.627-.722.813-1.158a3.79 3.79 0 0 0 .291-1.492 1.853 1.853 0 0 0-.398-1.255c-.664-.88-2.649-1.228-3.696-1.5-1.14-.298-1.165-.494-1.264-.629a.91.91 0 0 1-.146-.54.924.924 0 0 1 .11-.467.876.876 0 0 1 .295-.323c.133-.086.28-.15.437-.186.176-.042.357-.063.54-.062a1.796 1.796 0 0 1 1.129.399c.152.123.28.272.376.44.087.152.144.317.17.489v.343h2.61v-2h-.792a2.527 2.527 0 0 0-.465-.592zm11.317 1.406l-3.242 2.586v-2.716h1.211v-2.025h-4.918v2.01h1.19v6.055h-1.19v2.011h4.918v-2.01h-1.21v-3.23l3.266 3.06v2.18h3.81v-2.18h-.93l-3.239-3.076 3.413-2.665h.856v-2.155h-3.906l-.029 2.155zm12.311-2.155v2.01h1.101l-1.633 2.242-1.545-2.241h.962v-2.011h-4.921v2.01h1.008l3.214 4.15v1.905h-1.257v2.011h5.106v-2.01h-1.378v-1.875l3.42-4.18h.848v-2.011h-4.925z" fill="#FFF" fill-rule="nonzero"/><path fill="#F8E71C" d="M0 17.701h2.655v2.655H0zm151.345 0H154v2.655h-2.655zM35.158 21.962h2.9v5.475h-12.58v-5.475h2.907L20.356 0h7.214zm-13.729-5.867v-5.474H8.85v5.474h2.9l7.585 21.962h7.216l-8.027-21.962z"/><path d="M11.056 22.043l1.996 5.394H7.966v-5.394h3.09zm7.47-20.273l-2.569 6.935h5.284L18.527 1.77zm6.256 27.576h5.288l-2.568 6.941-2.72-6.94zm10.212-13.33h3.063v-5.395h-5.08l2.017 5.395z" fill="#F8E71C" fill-rule="nonzero"/></g></svg>