<?xml version="1.0" encoding="utf-8"?><svg xmlns="http://www.w3.org/2000/svg" xmlns:xlink="http://www.w3.org/1999/xlink"><symbol viewBox="0 0 12 16" id="attachment" xmlns="http://www.w3.org/2000/svg"><path d="M5.854 2.428h.804v-.446c0-.165-.058-.3-.136-.398-.087-.087-.174-.126-.261-.126a.339.339 0 00-.262.126.584.584 0 00-.145.398v.446zM2.53 3.88a.968.968 0 00-.96.96v8.741c0 .533.436.96.96.96h6.318c.533 0 .96-.427.96-.96v-8.74a.962.962 0 00-.96-.96h-.736v3.363a2.69 2.69 0 01-.679 1.812c-.436.466-1.046.785-1.744.785-.688 0-1.308-.32-1.735-.785a2.71 2.71 0 01-.688-1.812V5.48c0-.407.33-.726.727-.726a.72.72 0 01.727.726v1.764c0 .33.126.63.31.834.193.203.416.31.659.31.242 0 .475-.107.678-.32.165-.184.3-.494.29-.824V3.88H2.53zm6.318 12.114H2.53a2.413 2.413 0 01-2.414-2.413v-8.74A2.42 2.42 0 012.53 2.428H4.4v-.446c0-.524.194-1.008.523-1.376.32-.36.805-.601 1.338-.601s1.008.242 1.337.61c.32.359.514.843.514 1.367v.445h.736a2.413 2.413 0 012.414 2.414v8.74a2.407 2.407 0 01-2.414 2.414z"/></symbol><symbol viewBox="0 0 511.997 511.997" id="cart" xmlns="http://www.w3.org/2000/svg"><path d="M405.387 362.612c-35.202 0-63.84 28.639-63.84 63.84s28.639 63.84 63.84 63.84 63.84-28.639 63.84-63.84-28.639-63.84-63.84-63.84zm0 89.376c-14.083 0-25.536-11.453-25.536-25.536s11.453-25.536 25.536-25.536c14.083 0 25.536 11.453 25.536 25.536s-11.453 25.536-25.536 25.536zm102.54-336.113a19.128 19.128 0 00-15.079-7.348H118.22l-17.237-72.12a19.16 19.16 0 00-18.629-14.702H19.152C8.574 21.704 0 30.278 0 40.856s8.574 19.152 19.152 19.152h48.085l62.244 260.443a19.153 19.153 0 0018.629 14.702h298.135c8.804 0 16.477-6.001 18.59-14.543l46.604-188.329a19.185 19.185 0 00-3.512-16.406zM431.261 296.85H163.227l-35.853-150.019h341.003L431.261 296.85zm-257.615 65.762c-35.202 0-63.84 28.639-63.84 63.84s28.639 63.84 63.84 63.84 63.84-28.639 63.84-63.84-28.639-63.84-63.84-63.84zm0 89.376c-14.083 0-25.536-11.453-25.536-25.536s11.453-25.536 25.536-25.536 25.536 11.453 25.536 25.536-11.453 25.536-25.536 25.536z"/></symbol><symbol viewBox="0 0 492 492" id="chevron-left" xmlns="http://www.w3.org/2000/svg"><path d="M198.608 246.104L382.664 62.04c5.068-5.056 7.856-11.816 7.856-19.024 0-7.212-2.788-13.968-7.856-19.032l-16.128-16.12C361.476 2.792 354.712 0 347.504 0s-13.964 2.792-19.028 7.864L109.328 227.008c-5.084 5.08-7.868 11.868-7.848 19.084-.02 7.248 2.76 14.028 7.848 19.112l218.944 218.932c5.064 5.072 11.82 7.864 19.032 7.864 7.208 0 13.964-2.792 19.032-7.864l16.124-16.12c10.492-10.492 10.492-27.572 0-38.06L198.608 246.104z"/></symbol><symbol viewBox="0 0 492.004 492.004" id="chevron-right" xmlns="http://www.w3.org/2000/svg"><path d="M382.678 226.804L163.73 7.86C158.666 2.792 151.906 0 144.698 0s-13.968 2.792-19.032 7.86l-16.124 16.12c-10.492 10.504-10.492 27.576 0 38.064L293.398 245.9l-184.06 184.06c-5.064 5.068-7.86 11.824-7.86 19.028 0 7.212 2.796 13.968 7.86 19.04l16.124 16.116c5.068 5.068 11.824 7.86 19.032 7.86s13.968-2.792 19.032-7.86L382.678 265c5.076-5.084 7.864-11.872 7.848-19.088.016-7.244-2.772-14.028-7.848-19.108z"/></symbol><symbol viewBox="0 0 16 16" id="close" xmlns="http://www.w3.org/2000/svg"><path d="M9.902 8l5.704 5.705a1.345 1.345 0 01-1.901 1.901L8 9.902l-5.705 5.704a1.345 1.345 0 11-1.901-1.901L6.098 8 .394 2.295A1.345 1.345 0 012.295.394L8 6.098 13.705.394a1.345 1.345 0 111.901 1.901L9.902 8z" fill-rule="evenodd"/></symbol><symbol viewBox="0 0 512 512" id="gift" xmlns="http://www.w3.org/2000/svg"><path d="M32 271.692v192c0 17.664 14.368 32 32 32h160v-224H32zm448-128H378.752c7.264-4.96 13.504-9.888 17.856-14.304 25.824-25.952 25.824-68.192 0-94.144-25.088-25.28-68.8-25.216-93.856 0-13.888 13.92-50.688 70.592-45.6 108.448h-2.304c5.056-37.856-31.744-94.528-45.6-108.448-25.088-25.216-68.8-25.216-93.856 0-25.792 25.952-25.792 68.192-.032 94.144 4.384 4.416 10.624 9.344 17.888 14.304H32c-17.632 0-32 14.368-32 32v48c0 8.832 7.168 16 16 16h208v-64h64v64h208c8.832 0 16-7.168 16-16v-48c0-17.632-14.336-32-32-32zm-257.888-1.056s-1.344 1.056-5.92 1.056c-22.112 0-64.32-22.976-78.112-36.864-13.408-13.504-13.408-35.52 0-49.024 6.496-6.528 15.104-10.112 24.256-10.112 9.12 0 17.728 3.584 24.224 10.112 21.568 21.696 43.008 77.12 35.552 84.832zm73.664 1.056c-4.544 0-5.888-1.024-5.888-1.056-7.456-7.712 13.984-63.136 35.552-84.832 12.896-13.024 35.456-13.088 48.48 0 13.44 13.504 13.44 35.52 0 49.024-13.792 13.888-56 36.864-78.144 36.864zm-7.776 128v224h160c17.664 0 32-14.336 32-32v-192H288z"/></symbol><symbol viewBox="0 0 17 15" id="home" xmlns="http://www.w3.org/2000/svg"><path d="M2.825 15h11.356c.543 0 .97-.434.97-.986V7.367l.292.237a.945.945 0 00.582.197.978.978 0 00.776-.395 1.007 1.007 0 00-.174-1.38L13.424 3.56V.996a.969.969 0 00-.97-.986.969.969 0 00-.971.986v1.065L9.076.207a.95.95 0 00-1.185 0L.38 6.026a.989.989 0 00-.175 1.38.953.953 0 001.36.178l.29-.237v6.667c0 .552.427.986.971.986zm.97-9.132l4.698-3.65 4.698 3.65v7.16H3.796v-7.16z"/></symbol><symbol viewBox="0 0 36 26" id="mail" xmlns="http://www.w3.org/2000/svg"><path d="M36 4.284A4.282 4.282 0 0031.716 0H4.284A4.282 4.282 0 000 4.284v16.91a4.282 4.282 0 004.284 4.284h27.432A4.282 4.282 0 0036 21.194V4.284zM4.306 2.555H31.77c.954 0 1.75.752 1.75 1.706v.466l-13.828 8.147a3.278 3.278 0 01-3.3 0L2.556 4.727v-.466c0-.954.797-1.706 1.751-1.706zM31.77 22.848H4.306c-.954 0-1.75-.752-1.75-1.706V7.696l12.528 7.38c.91.534 1.931.805 2.946.805a5.858 5.858 0 002.954-.805l12.536-7.38v13.446c0 .954-.797 1.706-1.751 1.706z"/></symbol><symbol viewBox="0 0 512 512" id="map" xmlns="http://www.w3.org/2000/svg"><path d="M256 0C161.896 0 85.333 76.563 85.333 170.667c0 28.25 7.063 56.26 20.49 81.104L246.667 506.5c1.875 3.396 5.448 5.5 9.333 5.5s7.458-2.104 9.333-5.5l140.896-254.813c13.375-24.76 20.438-52.771 20.438-81.021C426.667 76.563 350.104 0 256 0zm0 256c-47.052 0-85.333-38.281-85.333-85.333S208.948 85.334 256 85.334s85.333 38.281 85.333 85.333S303.052 256 256 256z"/></symbol><symbol viewBox="0 0 512 512" id="messenger" xmlns="http://www.w3.org/2000/svg"><path d="M390.387 198.637l-68.836 98.332c-6.02 8.605-17.668 11.086-26.676 5.683l-82.668-49.605-61.059 83.586c-6.511 8.918-19.027 10.867-27.945 4.351s-10.867-19.027-4.351-27.949l71.832-98.332c6.101-8.355 17.57-10.676 26.441-5.351l82.348 49.41 58.144-83.067c6.332-9.047 18.805-11.25 27.852-4.914 9.05 6.336 11.25 18.805 4.918 27.856zM512 256c0 141.484-114.496 256-256 256-41.703 0-82.898-10.219-119.563-29.602l-94.707 9.829c-12.62 1.316-23.265-9.34-21.957-21.957l9.829-94.707C10.219 338.897 0 297.702 0 256 0 114.516 114.496 0 256 0c141.484 0 256 114.496 256 256zm-40 0c0-119.379-96.605-216-216-216-119.379 0-216 96.605-216 216 0 37.023 9.535 73.555 27.574 105.652a20.029 20.029 0 012.457 11.864l-7.93 76.382c80.778-8.347 76.544-8.035 78.45-8.035 3.422 0 6.797.875 9.8 2.567C182.446 462.465 218.978 472 256 472c119.379 0 216-96.605 216-216zm0 0"/></symbol><symbol viewBox="0 0 36 36" id="phone" xmlns="http://www.w3.org/2000/svg"><path d="M12.566 14.574c0 .127 0 .254.127.254.891 1.401 7.131 7.64 8.405 8.532h.254c.637-.382 1.401-.764 1.91-1.273 2.165-1.656 4.712-.128 6.495 1.146 1.273 1.019 4.711 3.31 5.093 4.966.382 1.274-.764 3.311-1.655 4.33-1.783 2.037-4.33 2.674-7.004 2.292C16.513 33.293 2.633 19.413 1.105 9.735.723 7.06 1.36 4.514 3.397 2.73 4.416 1.84 6.453.694 7.854 1.076c1.528.382 3.948 3.82 4.84 5.093 1.272 1.91 2.928 4.457 1.145 6.495a24.723 24.723 0 00-1.273 1.91zM2.888 9.48c-.764-5.348 3.947-6.876 4.457-6.749.51.127 2.037 2.037 3.82 4.457 1.91 2.547 1.91 3.565 1.273 4.33-.509.764-1.655 2.546-1.655 2.546s-.255.892.382 1.783c.764 1.146 7.768 8.15 9.041 8.914.892.637 1.656.382 1.656.382s1.782-1.019 2.546-1.655c.764-.637 1.783-.51 4.33 1.273s4.33 3.31 4.457 3.82c.127.51-1.273 5.348-6.75 4.457C17.533 31.638 4.29 18.394 2.889 9.48z" fill-rule="evenodd"/></symbol><symbol viewBox="0 0 512 512" id="question" xmlns="http://www.w3.org/2000/svg"><circle cx="255.984" cy="492" r="20"/><path d="M412.979 155.775C412.321 69.765 342.147 0 255.984 0c-86.57 0-157 70.43-157 157 0 11.046 8.954 20 20 20s20-8.954 20-20c0-64.514 52.486-117 117-117s117 52.486 117 117c0 .356.009.71.028 1.062a116.936 116.936 0 01-71.12 106.661c-40.038 17.094-65.908 56.675-65.908 100.839V412c0 11.046 8.954 20 20 20s20-8.954 20-20v-46.438c0-28.117 16.334-53.258 41.614-64.051a156.884 156.884 0 0095.418-144.516c0-.41-.013-.816-.037-1.22z"/></symbol><symbol viewBox="0 0 56 49" id="sample" xmlns="http://www.w3.org/2000/svg"><g stroke-width=".5"><path d="M54.828 36.088a1.068 1.068 0 00-.478-.657L40.764 27.24c.14-.049.276-.092.41-.147l1.553-.669a1.84 1.84 0 00.332-3.24L35.08 17.66h.411a6.136 6.136 0 004.014-1.503l1.086-.951a1.84 1.84 0 00-.657-3.16l-7.419-2.35 1.007-.83a6.382 6.382 0 002.19-3.73l.264-1.553a2.025 2.025 0 00-3.007-2.129L21.39 8.204c-.053.033-.105.07-.153.11-.16.074-.32.142-.473.221l-9.204 4.83a15.678 15.678 0 01-7.235 1.749H2.19a1.043 1.043 0 100 2.086h2.136a17.795 17.795 0 008.21-2l9.205-4.836a6.1 6.1 0 014.639-.411l12.543 3.933-.78.682a3.98 3.98 0 01-2.595.987l-3.682-.147-.417-.288a11.819 11.819 0 00-6.75-2.117h-2.762a1.043 1.043 0 100 2.086h2.768a9.818 9.818 0 015.578 1.743l11.272 7.83-1.227.51a3.584 3.584 0 01-3.068-.117l-6.075-3.142a12.923 12.923 0 00-10.53-.614l-3.921.982-.117.043a3.897 3.897 0 00-2.504 3.946c.135 1.785 1.344 2.7 2.522 3.362l7.425 4.013c1.596.94 2.596 1.596 3.069 2.835l.405 1.117a.387.387 0 01-.074.4.393.393 0 01-.362.128l-12.862-3.989c-.577-.171-1.141-.368-1.693-.558a13.96 13.96 0 00-4.505-1.037H2.19a1.043 1.043 0 100 2.086h5.848c1.313.106 2.6.416 3.817.92.583.203 1.178.406 1.774.614L26.515 40.2h.074c.187.044.378.066.57.068a2.455 2.455 0 002.455-1.989l16.71 9.972c.16.099.345.15.533.147.359.002.693-.181.884-.484l6.952-11.046a1.05 1.05 0 00.135-.78zM26.276 7.75l7.646-4.449-.27 1.43a4.295 4.295 0 01-1.48 2.516l-2.018 1.73-3.13-.988c-.251-.104-.497-.165-.748-.239zM16.224 26.122a1.84 1.84 0 011.117-1.84l3.486-.872L17.96 28l-.289-.16c-1.153-.68-1.405-1.14-1.448-1.718zM46.52 45.95L28.933 35.4c-.81-1.78-2.381-2.724-3.817-3.565l-5.314-2.872 3.97-6.302c2.224-.313 4.49.073 6.486 1.105l5.063 2.614.043.037L52.36 36.67l-5.841 9.278z"/><path d="M42.832 41.304a4.05 4.05 0 10-4.044-4.05 4.056 4.056 0 004.044 4.05zm0-6.008a1.964 1.964 0 11.036 3.927 1.964 1.964 0 01-.036-3.927z"/></g></symbol><symbol viewBox="0 0 511.999 511.999" id="search" xmlns="http://www.w3.org/2000/svg"><path d="M508.874 478.708L360.142 329.976c28.21-34.827 45.191-79.103 45.191-127.309C405.333 90.917 314.416 0 202.666 0S0 90.917 0 202.667s90.917 202.667 202.667 202.667c48.206 0 92.482-16.982 127.309-45.191l148.732 148.732c4.167 4.165 10.919 4.165 15.086 0l15.081-15.082c4.165-4.166 4.165-10.92-.001-15.085zM202.667 362.667c-88.229 0-160-71.771-160-160s71.771-160 160-160 160 71.771 160 160-71.771 160-160 160z"/></symbol><symbol viewBox="0 0 48 51" id="support" xmlns="http://www.w3.org/2000/svg"><path d="M45.165 18.098v-.059C44.244 5.64 33.881 0 24.635 0h-.079c-7.219 0-13.284 2.114-17.08 5.955-3.073 3.107-4.634 7.194-4.644 12.144C1.22 18.445 0 19.8 0 21.402v7.331c0 1.737 1.41 3.15 3.2 3.353v1.632c0 .79.634 1.431 1.415 1.431h9.887c-4.311 1.169-7.722 4.526-8.592 8.792l-1.103 5.34c-.085.43.028.86.297 1.19A1.37 1.37 0 006.193 51h35.614c.424 0 .82-.186 1.089-.53a1.43 1.43 0 00.297-1.188L42.09 43.94c-.876-4.296-4.34-7.69-8.695-8.821 3.38-3.91 5.641-9.551 5.641-14.42 0-1.532-.24-3.021-.678-4.41a.873.873 0 00-.085-.272c-1.98-5.971-7.62-10.281-14.266-10.281-8.3 0-15.043 6.715-15.043 14.963 0 .072 0 .158.014.244.044 3.729 1.414 7.87 3.563 11.342H6.028v-.426c1.307-.516 2.229-1.72 2.229-3.127v-7.331c0-1.522-1.103-2.808-2.6-3.232v-.023c0-4.184 1.285-7.605 3.816-10.166 3.264-3.3 8.618-5.117 15.086-5.117h.071c7.987 0 16.929 4.812 17.712 15.283v.023c-1.496.425-2.599 1.71-2.599 3.232v7.331c0 1.876 1.64 3.394 3.648 3.394h.975c1.994 0 3.634-1.518 3.634-3.394v-7.331c0-1.605-1.221-2.959-2.835-3.304zM12 21.882c2.574-1.017 9.503-4.237 12.257-9.882 1.684 2.746 5.023 5.938 11.437 6.272.195.85.306 1.743.306 2.649 0 4.85-2.852 10.844-6.636 13.938-.028.028-.07.056-.098.084-3.392 2.74-7.078 2.731-10.48.043h2.398c.768 0 1.39-.624 1.39-1.394 0-.77-.622-1.394-1.39-1.394h-5.095C13.84 29.239 12.259 25.35 12 21.882zM7.465 48.36c.355-2.73 1.087-4.858 2.196-6.385 1.11-1.527 2.889-2.526 5.339-2.997 3.123.74 6.197 1.111 9.222 1.111 3.024 0 5.805-.37 8.342-1.111 2.443.47 4.255 1.47 5.436 2.997s1.772 3.655 1.772 6.385H7.465z"/></symbol><symbol viewBox="0 -39 512 512" id="telegram" xmlns="http://www.w3.org/2000/svg"><path d="M504.094 11.86C497.84 4.21 488.473 0 477.714 0c-5.847 0-12.042 1.23-18.41 3.664L25.907 169.105c-23 8.778-26.097 21.95-25.898 29.02s4.039 20.047 27.5 27.512c.14.043.281.086.422.125l89.898 25.726 48.617 139.024c6.63 18.953 21.508 30.726 38.836 30.726 10.926 0 21.672-4.578 31.078-13.234l55.606-51.2 80.652 64.942c.008.008.02.012.028.02l.765.617.215.168c8.965 6.953 18.75 10.625 28.309 10.629h.003c18.676 0 33.547-13.825 37.88-35.215l71.011-350.64c2.852-14.075.461-26.669-6.734-35.466zM147.902 246.601l173.442-88.606L213.348 272.75a14.975 14.975 0 00-3.641 6.684l-20.824 84.351zm68.133 139.332c-.719.66-1.441 1.25-2.164 1.793l19.32-78.25 35.145 28.3zm265.39-344.567l-71.01 350.645c-.685 3.355-2.868 11.164-8.481 11.164-2.774 0-6.258-1.512-9.825-4.258l-91.39-73.586a.173.173 0 00-.043-.031l-54.38-43.79 156.177-165.949a15 15 0 00-17.746-23.636L127.859 223.152l-91.12-26.07 433.265-165.39c3.66-1.399 6.215-1.692 7.71-1.692.919 0 2.552.11 3.157.855.797.973 1.813 4.29.555 10.512zm0 0"/></symbol><symbol viewBox="0 0 24 24" id="vk" xmlns="http://www.w3.org/2000/svg"><path d="M12.145 19.5c3.472 0 2.234-2.198 2.502-2.83-.004-.472-.008-.926.008-1.202.22.062.739.325 1.811 1.367 1.655 1.67 2.078 2.665 3.415 2.665h2.461c.78 0 1.186-.323 1.389-.594.196-.262.388-.722.178-1.438-.549-1.724-3.751-4.701-3.95-5.015a2.84 2.84 0 01.103-.175h-.002c.632-.835 3.044-4.449 3.399-5.895a.019.019 0 00.002-.008c.192-.66.016-1.088-.166-1.33-.274-.362-.71-.545-1.299-.545h-2.461c-.824 0-1.449.415-1.765 1.172-.529 1.345-2.015 4.111-3.129 5.09a64.114 64.114 0 01.007-3.233c.036-1.535.152-3.029-1.441-3.029H9.339c-.998 0-1.953 1.09-.919 2.384.904 1.134.325 1.766.52 4.912-.76-.815-2.112-3.016-3.068-5.829-.268-.761-.674-1.466-1.817-1.466H1.594C.596 4.501 0 5.045 0 5.956 0 8.002 4.529 19.5 12.145 19.5zM4.055 6.001c.217 0 .239 0 .4.457.979 2.883 3.175 7.149 4.779 7.149 1.205 0 1.205-1.235 1.205-1.7l-.001-3.702C10.372 6.98 9.926 6.37 9.633 6l3.508.004c.002.017-.02 4.095.01 5.083 0 1.403 1.114 2.207 2.853.447 1.835-2.071 3.104-5.167 3.155-5.293.075-.18.14-.241.376-.241h2.471l-.002.009c-.225 1.05-2.446 4.396-3.189 5.435l-.034.05c-.327.534-.593 1.124.045 1.954h.001c.058.07.209.234.429.462.684.706 3.03 3.12 3.238 4.08-.138.022-.288.006-2.613.011-.495 0-.882-.74-2.359-2.23-1.328-1.292-2.19-1.82-2.975-1.82-1.524 0-1.413 1.237-1.399 2.733.005 1.622-.005 1.109.006 1.211-.089.035-.344.105-1.009.105C5.8 18 1.668 7.929 1.509 6.004c.055-.005.812-.002 2.546-.003z"/></symbol><symbol viewBox="0 0 43 64" id="warranty" xmlns="http://www.w3.org/2000/svg"><g fill-rule="evenodd"><path d="M16.618 58.353l-4.431-8.007-8.76 3.06 5.99-16.43 2.898 1.057-3.76 10.314 5.07-1.771 2.414 4.36 3.937-10.803 2.898 1.057z"/><path d="M27.714 63.628l-8.2-22.5 2.896-1.056 5.884 16.14 2.414-4.361 5.07 1.772L30.5 39.145l2.897-1.057 7.507 20.593-8.758-3.06z"/><path d="M21.59 42.265C10 42.265.57 32.835.57 21.245S10 .225 21.59.225s21.02 9.429 21.02 21.02c0 11.59-9.43 21.02-21.02 21.02zm0-38.956c-9.889 0-17.935 8.046-17.935 17.935 0 9.89 8.046 17.936 17.935 17.936 9.89 0 17.936-8.046 17.936-17.935 0-9.89-8.046-17.936-17.936-17.936z" fill-rule="nonzero"/><path d="M20.576 32.278l-9.179-9.76 2.247-2.113 6.442 6.85 9.202-14.662 2.613 1.639z"/></g></symbol></svg>